<?xml version="1.0" encoding="utf-8"?>
<!-- Generator: Adobe Illustrator 18.0.0, SVG Export Plug-In . SVG Version: 6.00 Build 0)  -->
<!DOCTYPE svg PUBLIC "-//W3C//DTD SVG 1.1//EN" "http://www.w3.org/Graphics/SVG/1.1/DTD/svg11.dtd">
<svg version="1.1" id="Layer_1" xmlns="http://www.w3.org/2000/svg" xmlns:xlink="http://www.w3.org/1999/xlink" x="0px" y="0px"
	 viewBox="0 0 100 100" enable-background="new 0 0 100 100" xml:space="preserve">
<g id="Layer_1_1_" display="none">
	
		<image display="inline" overflow="visible" enable-background="new    " width="800" height="600" xlink:href="7A8FC12C.png"  transform="matrix(0.9999 0 0 0.9999 -88.1946 -323.1269)">
	</image>
</g>
<g id="Layer_2">
	<image overflow="visible" width="65" height="59" xlink:href="7A8FC12D.png"  transform="matrix(1 0 0 1 18 20)">
	</image>
	<g>
		<g>
			<g>
				
					<linearGradient id="SVGID_1_" gradientUnits="userSpaceOnUse" x1="49.1986" y1="63.2076" x2="49.1986" y2="36.2433" gradientTransform="matrix(1 0 0 -1 -3.8486 98.9679)">
					<stop  offset="0" style="stop-color:#F3F3F3"/>
					<stop  offset="1" style="stop-color:#C1C2C3"/>
				</linearGradient>
				<path fill="url(#SVGID_1_)" d="M56.1,46.7L37.5,36.1c-2-1.1-4.4,0.3-4.4,2.6v21c0,2.3,2.5,3.7,4.4,2.6l18.6-10.5
					C58.1,50.7,58.1,47.8,56.1,46.7z"/>
				
					<linearGradient id="SVGID_2_" gradientUnits="userSpaceOnUse" x1="37.9779" y1="64.5" x2="37.9779" y2="37.0316" gradientTransform="matrix(-1 0 0 -1 100.4279 100)">
					<stop  offset="0" style="stop-color:#F3F3F3"/>
					<stop  offset="1" style="stop-color:#C1C2C3"/>
				</linearGradient>
				<path fill="url(#SVGID_2_)" d="M65.3,35.5h-5.7c-1.1,0-2.1,0.9-2.1,2.1V61c0,1.1,0.9,2.1,2.1,2.1h5.7c1.1,0,2.1-0.9,2.1-2.1
					V37.6C67.4,36.4,66.4,35.5,65.3,35.5z"/>
			</g>
		</g>
	</g>
</g>
</svg>
