<?xml version="1.0" encoding="utf-8"?>
<!-- Generator: Adobe Illustrator 18.0.0, SVG Export Plug-In . SVG Version: 6.00 Build 0)  -->
<!DOCTYPE svg PUBLIC "-//W3C//DTD SVG 1.1//EN" "http://www.w3.org/Graphics/SVG/1.1/DTD/svg11.dtd">
<svg version="1.1" id="Layer_1" xmlns="http://www.w3.org/2000/svg" xmlns:xlink="http://www.w3.org/1999/xlink" x="0px" y="0px"
	 viewBox="0 0 100 100" enable-background="new 0 0 100 100" xml:space="preserve">
<g id="Layer_1_1_" display="none">
	
		<image display="inline" overflow="visible" enable-background="new    " width="800" height="600" xlink:href="B9984A3B.png"  transform="matrix(0.9999 0 0 0.9999 -88.1946 -323.1269)">
	</image>
</g>
<g id="Layer_2">
	<image overflow="visible" width="65" height="59" xlink:href="B9984A39.png"  transform="matrix(1 0 0 1 18 20)">
	</image>
	<g>
		<g>
			<g>
				
					<linearGradient id="SVGID_1_" gradientUnits="userSpaceOnUse" x1="49.1266" y1="63.2076" x2="49.1266" y2="36.2433" gradientTransform="matrix(-1 0 0 -1 104.2766 98.9679)">
					<stop  offset="0" style="stop-color:#F3F3F3"/>
					<stop  offset="1" style="stop-color:#C1C2C3"/>
				</linearGradient>
				<path fill="url(#SVGID_1_)" d="M44.4,46.7L63,36.2c2-1.1,4.4,0.3,4.4,2.6v21c0,2.3-2.5,3.7-4.4,2.6L44.4,51.8
					C42.4,50.7,42.4,47.8,44.4,46.7z"/>
				
					<linearGradient id="SVGID_2_" gradientUnits="userSpaceOnUse" x1="37.95" y1="64.5" x2="37.95" y2="37.0316" gradientTransform="matrix(1 0 0 -1 0 100)">
					<stop  offset="0" style="stop-color:#F3F3F3"/>
					<stop  offset="1" style="stop-color:#C1C2C3"/>
				</linearGradient>
				<path fill="url(#SVGID_2_)" d="M35.1,35.5h5.7c1.1,0,2.1,0.9,2.1,2.1V61c0,1.1-0.9,2.1-2.1,2.1h-5.7C34,63.1,33,62.2,33,61V37.6
					C33.1,36.4,34,35.5,35.1,35.5z"/>
			</g>
		</g>
	</g>
</g>
</svg>
